<svg version="1.1" id="Layer_1" xmlns="http://www.w3.org/2000/svg" xmlns:xlink="http://www.w3.org/1999/xlink" x="0px" y="0px"
	 width="100%" viewBox="0 0 992 992" enable-background="new 0 0 992 992" xml:space="preserve">
<path fill="#000000" opacity="1.000000" stroke="none" 
	d="
M520.131714,197.650482 
	C542.884705,196.909012 564.704773,199.345139 585.538940,207.643295 
	C597.299194,212.327332 608.236938,218.412582 618.086304,226.663284 
	C633.909607,239.918259 644.030273,256.623718 649.936707,276.074829 
	C652.584900,284.796082 654.438354,293.773376 654.279602,302.957977 
	C654.118896,312.250519 655.211792,321.582550 653.418030,330.839417 
	C652.882324,333.603973 653.651672,335.252045 657.107361,335.888428 
	C667.665405,337.832672 677.898804,335.561462 688.194946,334.174042 
	C697.099182,332.974152 705.432617,329.406036 714.147339,327.372467 
	C714.791931,327.222015 715.400818,326.894379 716.049133,326.787140 
	C727.567810,324.881531 732.130249,328.886444 732.385193,340.525269 
	C732.741516,356.791016 726.622253,370.991211 718.619507,384.549622 
	C704.504456,408.463867 684.700867,425.288483 657.236572,431.728210 
	C648.105225,433.869293 638.757812,435.369110 629.181274,433.542023 
	C620.916626,431.965210 618.496338,434.002563 614.313354,443.986694 
	C612.235107,448.947357 611.194458,454.160034 610.668335,459.421204 
	C609.998596,466.117920 609.870544,472.868774 609.523438,479.328613 
	C611.026306,480.197266 612.016785,479.828217 612.876831,479.383026 
	C623.983948,473.634186 635.894043,472.174103 648.185242,472.658844 
	C652.393127,472.824799 656.427002,473.832733 660.168030,475.643005 
	C666.739746,478.822968 669.484741,485.070435 667.873901,492.210419 
	C664.762268,506.001892 656.593018,515.917847 644.649414,523.102356 
	C629.436646,532.253418 614.313538,541.553589 599.144104,550.776917 
	C591.483582,555.434631 583.382324,555.817444 575.261658,552.487793 
	C566.462952,548.880127 563.775452,543.049927 566.742065,534.104248 
	C568.184509,529.754700 567.758240,527.633972 562.652649,527.187317 
	C548.934509,525.987366 536.028076,520.849792 522.521545,518.562988 
	C520.021179,518.139648 517.624573,518.510071 515.171814,519.292297 
	C493.748016,526.124390 471.704681,528.135803 449.356445,527.266846 
	C444.085663,527.061890 438.853882,525.966125 433.592285,525.388123 
	C421.991364,524.113708 412.012421,529.525757 401.627441,533.247681 
	C400.380188,533.694702 399.169678,534.348816 397.884308,534.568115 
	C389.759125,535.954651 384.362213,541.223755 378.432068,546.527100 
	C366.475861,557.219421 352.004059,563.604065 336.128815,566.282227 
	C321.968292,568.671143 308.048859,567.348267 294.483307,562.503296 
	C290.006653,560.904419 286.121307,558.451416 282.889404,554.994324 
	C278.377533,550.168091 278.455536,546.143982 283.150269,541.587952 
	C288.460602,536.434326 295.173218,533.301147 301.236542,529.239380 
	C315.048431,519.987061 328.999268,510.942200 342.896973,501.818024 
	C343.869843,501.179291 344.840851,500.528778 345.861328,499.972870 
	C353.992401,495.543365 354.793823,493.076813 353.439728,483.780609 
	C351.721741,471.986420 347.772308,460.978790 343.035706,450.179016 
	C340.560699,444.535858 338.908325,438.679932 338.065826,431.890991 
	C327.305389,434.532166 316.565094,434.155151 305.841370,434.515717 
	C288.240631,435.107483 273.014160,429.266327 258.985046,419.214600 
	C252.667084,414.687805 247.543457,409.175446 243.280029,402.693085 
	C239.441284,396.856415 239.239700,390.475922 239.795670,383.953094 
	C239.999008,381.567444 241.700775,379.922913 243.698395,378.444916 
	C252.118408,372.215485 261.965240,368.917603 271.407043,364.850067 
	C299.698975,352.661713 327.430664,339.416412 353.547638,322.969818 
	C356.215149,321.289978 357.993927,319.083008 359.272552,316.289276 
	C367.278778,298.795868 377.412384,282.581726 389.557983,267.709045 
	C415.667236,235.737381 447.443268,212.132080 488.234772,202.241074 
	C498.551270,199.739548 509.078583,198.512329 520.131714,197.650482 
M640.656677,325.176758 
	C641.283081,313.057892 642.112976,300.942963 639.702148,288.892242 
	C638.710205,283.933838 637.119812,279.229919 634.380432,274.991974 
	C628.795471,266.351715 618.593506,264.775879 610.618225,271.266388 
	C607.737000,273.611145 605.513733,276.514526 603.871521,279.848755 
	C598.235107,291.292969 598.396301,303.929626 595.899292,316.107117 
	C603.180176,318.901428 610.195862,321.156464 616.043152,325.772552 
	C621.710449,330.246613 621.693726,335.451538 616.006958,339.770355 
	C613.864136,341.397736 611.435120,342.469330 608.920471,343.401306 
	C597.121399,347.774414 584.903992,348.617828 572.581360,347.067719 
	C562.304688,345.774963 552.352600,342.943237 543.311584,337.673615 
	C540.045471,335.769928 536.583435,333.726471 536.686890,329.059692 
	C536.795898,324.146942 540.574829,322.339386 544.098755,320.531372 
	C548.700684,318.170288 553.636902,316.639221 558.717957,315.592804 
	C560.532898,315.218994 562.494019,314.742645 562.328918,312.266541 
	C561.709839,302.980713 561.817871,293.559052 560.206787,284.443970 
	C556.242310,262.014221 532.602295,246.891617 509.446045,250.687943 
	C490.910980,253.726639 475.848511,262.949951 462.492218,275.472382 
	C441.467804,295.184113 426.688812,319.178345 415.313019,345.408508 
	C403.461914,372.734772 396.847107,401.040131 401.450531,430.952545 
	C405.002197,454.030609 415.828308,473.089447 435.577667,486.231964 
	C458.081268,501.207336 483.426971,504.095184 509.412445,501.194550 
	C532.734741,498.591217 553.466064,488.680389 572.100525,474.515839 
	C600.110596,453.224609 616.813904,424.321045 627.506165,391.475555 
	C634.428711,370.210419 638.233826,348.294281 640.656677,325.176758 
z"/>
<path fill="#000000" opacity="1.000000" stroke="none" 
	d="
M383.559509,637.434204 
	C393.234161,636.438477 402.598114,636.248474 411.640930,634.446777 
	C420.668030,632.648254 426.583832,638.333191 433.664429,641.386902 
	C435.208313,642.052856 435.715942,643.512024 436.222168,644.901550 
	C438.152618,650.200134 440.045349,655.512939 441.902161,660.837830 
	C442.646393,662.972168 442.465729,665.068298 441.439026,667.122009 
	C438.491882,673.017456 436.891174,679.518799 432.840729,685.220337 
	C433.812683,685.304138 434.308868,685.457031 434.758362,685.369629 
	C446.411957,683.105347 447.021851,683.331848 450.533722,694.195435 
	C451.784821,698.065491 453.651611,700.560852 457.935852,701.034485 
	C466.646423,701.997314 471.788696,706.509216 473.924194,715.428162 
	C476.978882,728.186035 479.102905,724.080383 468.972229,733.531311 
	C463.677307,738.471008 457.656799,741.530396 451.480438,744.714722 
	C429.600250,755.995178 407.758911,767.351501 385.837646,778.551453 
	C382.568909,780.221497 380.813110,782.428345 380.150482,786.064148 
	C379.231934,791.104187 377.641174,796.018494 376.605530,801.041809 
	C376.111450,803.438049 375.081757,804.512634 372.623779,804.370850 
	C355.042084,803.356689 337.400909,804.022949 319.835602,802.516846 
	C319.172302,802.460022 318.502869,802.406433 317.839325,802.431396 
	C298.191284,803.170837 278.584198,801.564148 258.957672,801.190125 
	C234.201279,800.718323 209.454620,799.483276 184.682129,799.292542 
	C181.553589,799.268494 178.435791,798.567200 175.301483,798.336182 
	C173.011261,798.167297 172.442551,796.562073 171.653351,794.835693 
	C166.271393,783.062622 164.390015,770.463745 162.678482,757.804749 
	C160.461761,741.409058 158.135803,725.028137 155.886749,708.636780 
	C154.784653,700.604553 153.781769,692.558655 152.670929,684.527710 
	C152.152786,680.781555 153.534348,677.759460 155.751663,674.870972 
	C161.506943,667.373596 167.211578,659.835693 172.821167,652.229004 
	C174.283661,650.245728 176.043015,649.494873 178.374939,649.649658 
	C195.579422,650.791565 212.838226,650.914551 230.021057,652.527588 
	C237.122757,653.194214 244.262054,652.687866 251.422287,653.433716 
	C261.476227,654.481018 271.660400,654.242798 281.783997,654.670288 
	C287.747711,654.922058 293.657959,655.862244 299.671265,655.703796 
	C303.237762,655.609863 304.738312,654.598022 304.725616,650.813110 
	C304.703094,644.107117 305.267151,644.079041 311.817688,643.564026 
	C325.510345,642.487427 339.167633,640.968933 352.852478,639.782410 
	C362.926941,638.908997 373.022125,638.274536 383.559509,637.434204 
M456.116974,730.663147 
	C458.534882,728.624084 460.989319,726.626343 463.358887,724.532654 
	C465.199524,722.906250 464.735931,721.006470 463.843018,719.052490 
	C462.775421,716.716248 461.159302,717.814331 459.618469,718.263245 
	C452.121704,720.446838 444.935547,723.465271 437.995483,726.968872 
	C421.192810,735.451538 404.522736,744.196350 387.769562,752.777588 
	C373.080078,760.301697 372.961578,760.251465 370.467834,776.572693 
	C369.723511,781.444153 367.986511,783.671143 362.492310,783.472351 
	C336.034668,782.515137 309.560455,782.026611 283.094971,781.272827 
	C250.643936,780.348694 218.195419,779.334167 185.746552,778.334961 
	C182.168442,778.224792 178.561508,778.569397 178.594696,783.073364 
	C178.624695,787.142029 181.218597,788.663513 185.563477,788.930298 
	C202.857254,789.992249 220.179230,789.772156 237.482315,790.458496 
	C276.578918,792.009155 315.709595,792.731201 354.830048,793.632629 
	C367.856628,793.932739 368.061005,793.751465 370.555695,780.803650 
	C371.532104,775.736023 373.885468,772.787048 378.540771,770.447449 
	C404.292633,757.505798 429.869171,744.215210 456.116974,730.663147 
M422.790710,666.192932 
	C420.042633,668.814636 417.294556,671.436401 414.608459,673.999023 
	C420.497040,681.637329 424.004974,681.264404 427.545258,673.116943 
	C428.606232,670.675232 429.499207,668.159058 430.602844,665.737976 
	C431.917297,662.854309 431.224548,660.509338 429.086426,657.958130 
	C427.177032,660.943420 426.637817,664.408936 422.790710,666.192932 
z"/>
<path fill="#000000" opacity="1.000000" stroke="none" 
	d="
M793.343384,498.220642 
	C800.515869,506.968750 807.446350,515.409363 814.272461,523.933533 
	C824.414429,536.598267 834.368774,549.415161 844.643860,561.970154 
	C848.233154,566.355896 850.100159,570.932373 849.381042,576.577209 
	C849.172119,578.217102 849.134949,579.939636 849.388062,581.566895 
	C850.296265,587.405762 847.376648,591.186768 843.780945,595.547058 
	C834.293335,607.052246 822.591309,616.135437 811.821899,626.194580 
	C793.758606,643.066589 774.994873,659.187988 756.561768,675.665344 
	C751.735596,679.979431 746.736267,684.160095 742.363770,688.906189 
	C736.859314,694.880920 730.958801,696.897461 722.646423,695.429993 
	C695.429993,690.625305 668.072937,686.617859 640.769897,682.303772 
	C625.893250,679.953125 611.013977,677.618225 596.142090,675.237793 
	C593.228210,674.771423 591.134521,673.455994 591.655396,669.981934 
	C591.679810,669.819153 591.676453,669.646057 591.651917,669.482910 
	C589.968567,658.305115 593.118469,648.873840 602.799866,641.618103 
	C597.618591,638.650818 592.668701,639.142334 588.101135,638.545227 
	C572.519592,636.508362 556.866943,635.013672 541.238159,633.342102 
	C538.387268,633.037170 536.460815,631.949829 536.677612,628.693604 
	C536.688660,628.527954 536.674194,628.360413 536.666504,628.193909 
	C535.918091,612.017456 535.944275,612.068359 550.436340,604.636047 
	C584.193359,587.323730 617.936401,569.983887 651.656799,552.600342 
	C665.257446,545.588989 678.801331,538.466797 692.336182,531.328918 
	C697.562622,528.572632 700.829712,523.479675 705.553345,520.016235 
	C710.346130,516.502014 714.710693,512.265869 718.702209,507.840332 
	C721.907715,504.286255 725.795837,503.182953 730.111816,502.708496 
	C748.535950,500.683289 766.962769,498.680359 785.401367,496.793304 
	C787.962524,496.531219 790.760498,495.908630 793.343384,498.220642 
M603.766479,661.177307 
	C600.410583,665.156616 603.511963,666.078430 606.526855,666.551392 
	C645.581970,672.678650 684.669128,678.606201 723.688171,684.953247 
	C728.682068,685.765625 731.793457,684.315491 735.204163,681.217102 
	C758.258667,660.274170 781.441101,639.472107 804.557861,618.597534 
	C815.679138,608.554993 827.189087,598.917053 837.050842,587.552673 
	C838.567688,585.804626 840.442200,584.242798 838.699402,580.125061 
	C835.200134,583.987061 832.365906,587.690063 828.969238,590.773438 
	C799.985352,617.083374 770.711609,643.077942 741.989258,669.668884 
	C735.600830,675.583252 729.907410,677.194397 721.281067,675.652283 
	C690.224487,670.100281 658.997803,665.482239 627.795471,660.775818 
	C620.071045,659.610657 612.185425,656.510803 603.766479,661.177307 
M605.743164,630.559570 
	C612.641541,630.865112 614.359558,629.738342 616.275818,623.651733 
	C615.460144,622.276062 614.049561,622.413208 612.748596,622.255066 
	C602.215576,620.974670 591.661438,619.842957 581.156738,618.361450 
	C571.056152,616.936951 561.047363,616.461182 551.120911,619.360291 
	C549.330811,619.883057 547.016357,619.645508 546.485168,622.811523 
	C552.283020,624.923401 558.420166,624.862793 564.376343,625.620361 
	C577.863037,627.335693 591.377686,628.831421 605.743164,630.559570 
z"/>
<path fill="#000000" opacity="1.000000" stroke="none" 
	d="
M611.458130,300.068665 
	C618.213562,297.582520 623.479126,299.691406 625.043152,305.162079 
	C626.496338,310.245026 623.602539,315.348053 618.380981,316.691498 
	C614.144958,317.781403 610.877930,315.964630 608.556580,312.618652 
	C605.904297,308.795624 606.932800,304.502289 611.458130,300.068665 
z"/>
<path fill="#000000" opacity="1.000000" stroke="none" 
	d="
M536.147766,298.991302 
	C540.059753,296.223602 543.815247,295.778107 547.559570,298.306000 
	C550.780457,300.480560 551.820251,303.745911 551.225037,307.453613 
	C550.612244,311.271149 548.159119,313.607513 544.516479,314.651306 
	C540.494812,315.803741 537.211365,314.237671 534.961182,311.081879 
	C532.104309,307.075226 532.646912,302.979980 536.147766,298.991302 
z"/>
</svg>